<?xml version="1.0" encoding="UTF-8" standalone="no"?>

<svg
   xmlns="http://www.w3.org/2000/svg"
   width="512px"
   height="512px"
   viewBox="0 0 512 512"
   style="enable-background: new 0 0 512 512;">
   <path
     style="fill:#000000;fill-opacity:0.72361809;stroke:#ffffff;stroke-width:1.10309041px;stroke-linecap:butt;stroke-linejoin:miter;stroke-opacity:0.00196078"
     d="M -13.465893,282.0383 260.44398,5.5913516 l 60.59407,55.3625774 -0.43452,-21.40889 104.9009,-1.202702 2.24897,144.965843 86.20318,90.67629 -0.33077,60.04584 -49.13788,-0.88624 0.43453,142.83126 -199.47365,1.38056 -1.19983,-81.85097 h -14.95795 l -0.18003,82.87581 -194.210454,-1e-5 -1.634378,-140.31412 -64.946955,-1.2027 z"
     id="path3725" /><g
     id="g3712"
     transform="matrix(0.89349019,0,0,0.92519475,30.059027,14.385414)"
     style="fill:#ffffff;fill-opacity:0.92462314"><path
       d="M 512,296 416,200 V 56 h -64 v 80 L 256,40 0,296 v 16 h 64 v 160 h 160 v -96 h 64 v 96 H 448 V 312 h 64 z"
       id="path3710"
       style="fill:#ffffff;fill-opacity:0.92462314" /></g><text
     style="font-style:normal;font-weight:normal;font-size:276.32974243px;line-height:1.25;font-family:sans-serif;letter-spacing:0px;word-spacing:0px;fill:#000000;fill-opacity:1;stroke:none;stroke-width:6.90824366"
     x="166.93744"
     y="330.37268"
     id="text4556"
     transform="scale(0.9816929,1.0186485)"><tspan
       id="tspan4554"
       x="166.93744"
       y="330.37268"
       style="font-style:normal;font-variant:normal;font-weight:bold;font-stretch:normal;font-family:Arial;-inkscape-font-specification:'Arial Bold';fill:#000000;fill-opacity:1;stroke-width:6.90824366">S</tspan></text>
</svg>