<?xml version="1.0" encoding="UTF-8" standalone="no"?>

<svg
   xmlns="http://www.w3.org/2000/svg"
   width="512px"
   height="512px"
   viewBox="0 0 512 512"
   style="enable-background: new 0 0 512 512;">
   <path
     style="stroke:#ffffff;stroke-width:1.3114475px;stroke-linecap:butt;stroke-linejoin:miter;stroke-opacity:0.00196078;fill:#ffffff;fill-opacity:0.72361809"
     d="m -65.384856,290.52269 326.035676,-328.27222 72.1253,65.741352 -0.51722,-25.4223967 124.86384,-1.428172 2.67694,172.1424567 102.60788,107.6753 -0.39371,71.30259 -58.48895,-1.05239 0.51722,169.60771 -237.43404,1.63938 -1.42817,-97.1955 h -17.80447 l -0.2143,98.41247 -231.169234,-10e-6 -1.945405,-166.6187 -77.306541,-1.42817 z"
     id="path3725" /><g
     id="g3712"
     transform="translate(-0.2370965,-0.7252451)"
     style="fill:#ff0f05;fill-opacity:0.79396987"><path
       d="M 512,296 416,200 V 56 h -64 v 80 L 256,40 0,296 v 16 h 64 v 160 h 160 v -96 h 64 v 96 H 448 V 312 h 64 z"
       id="path3710"
       style="fill:#ff0f05;fill-opacity:0.79396987" /></g><text
     style="font-style:normal;font-weight:normal;font-size:237.6053772px;line-height:1.25;font-family:sans-serif;letter-spacing:0px;word-spacing:0px;fill:#ffffff;fill-opacity:1;stroke:none;stroke-width:5.94013453"
     x="178.1781"
     y="314.67648"
     id="text4556"
     transform="scale(0.9940103,1.0060258)"><tspan
       id="tspan4554"
       x="178.1781"
       y="314.67648"
       style="font-style:normal;font-variant:normal;font-weight:normal;font-stretch:normal;font-family:Arial;-inkscape-font-specification:Arial;stroke-width:5.94013453">S</tspan></text>
</svg>